<svg xmlns="http://www.w3.org/2000/svg" width="1517" height="1517" viewBox="0 0 1596.96 1596.96" shape-rendering="geometricPrecision" text-rendering="geometricPrecision" image-rendering="optimizeQuality" fill-rule="evenodd" clip-rule="evenodd">
  <defs>
    <style>
      .fil1,.fil2{fill:#fefefe;fill-rule:nonzero}.fil2{fill:#c32723}
    </style>
  </defs>
  <g id="Layer_x0020_1">
    <circle cx="798.48" cy="798.48" r="798.48" fill="#faea33"/>
    <path class="fil1" d="M243.45 703.09h-98.88V542.35h30.47v134.5h68.41z"/>
    <path id="1" class="fil1" d="M338.84 665.19l24.27 3.3c-3.13 10.73-9.28 19.61-18.37 26.61-9.12 6.99-20.54 10.45-34.28 10.49-16.48-.04-29.75-5.55-39.8-16.64-10.04-11.06-15.07-26.05-15.07-44.98 0-17.97 5.07-32.84 15.19-44.62 10.13-11.78 23.88-17.69 41.2-17.69 16.97 0 30.07 5.83 39.36 17.45 9.24 11.62 13.9 26.53 13.9 44.74l-.12 3.09h-81.63c0 8.08.76 14.55 2.29 19.42 1.52 4.86 4.58 9.08 9.12 12.7 4.58 3.61 10.25 5.42 17.08 5.42 13.27 0 22.23-6.43 26.86-19.29zm-1.65-35.57c-.08-8.56-2.66-15.56-7.72-20.99-5.06-5.38-11.3-8.11-18.77-8.11-7.4 0-13.55 2.53-18.49 7.59-4.94 5.07-7.84 12.22-8.72 21.51h53.7z"/>
    <path id="2" class="fil1" d="M476.26 584.16l-40.39 118.93H413.6l-41.32-118.93h28.01l27.82 80.67 27.09-80.67z"/>
    <path id="3" class="fil1" d="M567.39 665.19l24.27 3.3c-3.13 10.73-9.28 19.61-18.37 26.61-9.12 6.99-20.54 10.45-34.28 10.49-16.48-.04-29.75-5.55-39.8-16.64-10.04-11.06-15.07-26.05-15.07-44.98 0-17.97 5.07-32.84 15.2-44.62 10.13-11.78 23.87-17.69 41.2-17.69 16.96 0 30.06 5.83 39.35 17.45 9.24 11.62 13.91 26.53 13.91 44.74l-.13 3.09h-81.63c0 8.08.76 14.55 2.29 19.42 1.53 4.86 4.58 9.08 9.12 12.7 4.59 3.61 10.25 5.42 17.09 5.42 13.26 0 22.22-6.43 26.85-19.29zm-1.65-35.57c-.08-8.56-2.65-15.56-7.72-20.99-5.06-5.38-11.29-8.11-18.77-8.11-7.4 0-13.55 2.53-18.49 7.59-4.94 5.07-7.84 12.22-8.72 21.51h53.7z"/>
    <path id="4" class="fil1" d="M716.71 703.09h-26.85v-74.32c0-7.84-1.81-13.74-5.42-17.72-3.62-3.94-7.96-5.95-13.07-5.95-6.99 0-13.1 3.09-18.37 9.2-5.26 6.11-7.92 15.36-7.92 27.66v61.13h-26.85V584.16h24.52v27.57c8.56-20.06 20.58-30.07 36.02-30.07 10.45 0 19.37 3.3 26.81 9.93 7.39 6.59 11.13 18.17 11.13 34.73v76.77z"/>
    <path id="5" class="fil1" d="M734.36 675.76l25.2-4.82c3.86 9.65 12.34 14.47 25.44 14.47 16.65 0 24.97-4.91 24.97-14.71 0-3.14-1.29-5.71-3.9-7.76-2.58-2.05-5.63-3.42-9.17-4.14l-21.66-4.1c-24.04-4.62-36.06-16.36-36.06-35.21 0-10.53 3.82-19.46 11.42-26.81 7.63-7.32 18.97-11.02 34.04-11.02 25.12 0 40.48 9.25 46.07 27.7l-23.92 4.82c-2.53-8.96-9.65-13.42-21.42-13.42-14.31 0-21.47 4.46-21.47 13.42 0 6.19 5.79 10.49 17.33 12.82l25.56 5.31c19.86 4.1 29.79 15.48 29.79 34.17 0 13.1-5.11 22.91-15.32 29.38-10.21 6.47-22.31 9.69-36.38 9.73-12.18-.04-22.91-2.5-32.27-7.4-9.33-4.9-15.44-12.38-18.25-22.43z"/>
    <path id="6" class="fil1" d="M956.84 703.09h-26.85v-77.85c0-8.4-1.81-14.27-5.39-17.69-3.57-3.42-7.75-5.15-12.54-5.15-7.59 0-13.98 3.02-19.17 9.09-5.19 6.03-7.8 16-7.8 29.9v61.7h-26.85V542.35h26.85v62.67c6.67-17.13 18.37-25.69 35.13-25.69 24.4 0 36.62 13.99 36.62 42.05v81.71z"/>
    <path id="7" class="fil1" d="M1086.95 703.09h-24.96v-25.68c-6.75 18.77-19.29 28.14-37.58 28.18-10.81-.04-19.41-3.38-25.77-10.09-6.39-6.72-9.56-16.08-9.56-28.1v-83.24h27.45v77.49c0 8.56 1.89 14.15 5.67 16.84 3.74 2.66 7.44 3.98 11.05 3.98 5.83 0 11.74-2.61 17.77-7.83 6.07-5.19 9.08-16.32 9.08-33.37v-57.11h26.85v118.93z"/>
    <path id="8" class="fil1" d="M1145.92 703.09h-26.85V542.35h26.85z"/>
    <path id="9" class="fil1" d="M1355.78 703.09h-28.14v-74.08c0-15.39-6.83-23.07-20.5-23.07-7.91 0-14.27 2.9-19.01 8.72-4.74 5.79-7.11 14.48-7.11 26.01v62.42h-28.5v-74.08c0-15.59-6.39-23.43-19.22-23.43-7.75 0-14.26 3.14-19.57 9.45-5.31 6.27-7.96 14.83-7.96 25.64v62.42h-27.69V584.16h26.04v25.32c8.48-18.53 21.71-27.82 39.68-27.82 17.52 0 28.9 9.29 34.16 27.82 9.57-18.53 22.79-27.82 39.68-27.82 11.45 0 20.7 3.58 27.69 10.74 6.95 7.15 10.45 16.03 10.45 26.61v84.08z"/>
    <path id="10" class="fil1" d="M1463.67 665.19l24.27 3.3c-3.13 10.73-9.28 19.61-18.37 26.61-9.12 6.99-20.54 10.45-34.28 10.49-16.48-.04-29.75-5.55-39.8-16.64-10.05-11.06-15.07-26.05-15.07-44.98 0-17.97 5.06-32.84 15.19-44.62 10.13-11.78 23.88-17.69 41.2-17.69 16.97 0 30.07 5.83 39.36 17.45 9.24 11.62 13.9 26.53 13.9 44.74l-.12 3.09h-81.63c0 8.08.76 14.55 2.29 19.42 1.52 4.86 4.58 9.08 9.12 12.7 4.58 3.61 10.25 5.42 17.08 5.42 13.27 0 22.23-6.43 26.86-19.29zm-1.65-35.57c-.08-8.56-2.66-15.56-7.72-20.99-5.07-5.38-11.3-8.11-18.77-8.11-7.4 0-13.55 2.53-18.49 7.59-4.95 5.07-7.84 12.22-8.72 21.51h53.7z"/>
    <path class="fil2" d="M191.85 817.73v75.74h125.12v44.35H191.85v114.66h-52.72V773.37h184.54v44.36z"/>
    <path id="1" class="fil2" d="M480.38 990.13h47l-.14 7.53c0 37.94-28.59 56.91-85.78 56.91-38.78 0-64.16-6.62-76.16-19.81-11.99-13.25-17.99-41.21-17.99-83.96 0-38.01 6.27-63.54 18.76-76.65 12.55-13.04 37.03-19.6 73.37-19.6 34.87 0 58.16 6.42 70.02 19.18 11.85 12.76 17.78 37.87 17.78 75.25l.14 14.37H395.15c-.35 4.32-.56 7.18-.56 8.51 0 19.04 3 31.73 8.93 38.08 5.93 6.34 17.78 9.48 35.5 9.48 17.16 0 28.38-1.81 33.54-5.51 5.23-3.7 7.82-11.64 7.82-23.78zm.41-55.24l-.21-7.81c0-15.62-2.72-25.73-8.09-30.4-5.37-4.68-17.08-6.98-35.01-6.98-17.43 0-28.8 2.79-34.03 8.44-5.23 5.58-7.88 17.86-7.88 36.75h85.22z"/>
    <path id="2" class="fil2" d="M729.42 911.04h-45.75l-.63-3.76c-.97-9.49-3.62-15.49-8.09-17.79-4.46-2.37-15.2-3.55-32.22-3.55-24.48 0-36.68 7.88-36.68 23.71 0 10.81 2.16 17.22 6.41 19.25 4.33 2.09 18.9 3.69 43.73 4.95 33.41 1.6 55.17 6.07 65.28 13.25 10.11 7.25 15.13 22.04 15.13 44.42 0 23.93-6.69 40.45-20.08 49.66-13.46 9.21-37.52 13.81-72.25 13.81-33.34 0-56.15-4.19-68.35-12.48-12.27-8.3-18.41-23.86-18.41-46.66l-.14-4.88h48.61c-.63 2.72-1.05 4.95-1.19 6.55-1.88 17.37 11.44 26.09 40.1 26.09 29.64 0 44.43-8.58 44.43-25.81 0-16.53-9.28-24.76-27.83-24.76-41.91 0-69.46-3.97-82.78-11.85-13.32-7.95-19.95-24.34-19.95-49.31 0-22.39 6.07-37.52 18.21-45.47 12.13-7.88 35.42-11.86 69.88-11.86 32.57 0 54.47 3.84 65.69 11.51 11.23 7.67 16.88 22.67 16.88 44.98z"/>
    <path id="3" class="fil2" d="M899.24 857.06v35.57h-74.9v98.06c0 18.34 6.83 27.48 20.5 27.48 15.07 0 22.6-11.09 22.6-33.2l.07-7.81h39.68v9.83c0 9-.28 16.74-.83 23.16-2.59 29.91-24.69 44.84-66.47 44.84-41.63 0-62.42-19.18-62.42-57.54V892.63h-25.52v-35.57h25.52v-43.52h46.87v43.52h74.9z"/>
    <path id="4" class="fil2" d="M979.93 773.37v38.92h-46.86v-38.92h46.86zm0 83.69v195.42h-46.86V857.06h46.86z"/>
    <path id="5" class="fil2" d="M1188.74 857.06l-56.01 195.42h-73.08l-58.87-195.42h49.66l25.73 90.18c3.56 12.48 6.77 24.62 9.77 36.33l4.74 18.21 4.67 18.2h1.05l4.25-18.2 4.33-18c3.28-13.6 6.34-25.73 9.2-36.33l24.06-90.39h50.5z"/>
    <path id="6" class="fil2" d="M1258.41 913.55h-47.77c0-23.29 5.43-38.91 16.31-46.79 10.95-7.88 32.5-11.79 64.79-11.79 35.22 0 58.94 4.81 71.35 14.44 12.41 9.62 18.62 28.03 18.62 55.16v127.91h-46.86l2.23-26.78-1.19-.21c-9 19.39-29.78 29.08-62.35 29.08-47.28 0-70.92-20.15-70.92-60.4 0-40.65 24.19-60.95 72.53-60.95 32.29 0 51.95 7.46 58.86 22.46h.84v-31.66c0-15.21-2.66-25.32-7.96-30.27-5.3-4.95-16.25-7.4-32.7-7.4-23.86 0-35.78 9.07-35.78 27.2zm31.17 51.05c-26.43 0-39.68 9.21-39.68 27.55 0 12.77 2.72 21.13 8.16 25.11 5.51 3.97 16.95 5.93 34.45 5.93 28.53 0 42.75-9.7 42.75-29.02 0-19.73-15.2-29.57-45.68-29.57z"/>
    <path id="7" class="fil2" d="M1475.02 773.37v279.11h-46.86V773.37z"/>
  </g>
</svg>
